<svg xmlns="http://www.w3.org/2000/svg" viewBox="0 0 500 500"><path d="M38.16 210.57S30.94 289 89.6 351.89s148.49 81.68 221 98.83 133.78-14.83 150-75.93-37.29-88.79-58.71-165-15.79-99.19-74.45-153.66S165.13 11.77 103.18 78 38.16 210.57 38.16 210.57Z" style="fill:#2563eb"/><path d="M38.16 210.57S30.94 289 89.6 351.89s148.49 81.68 221 98.83 133.78-14.83 150-75.93-37.29-88.79-58.71-165-15.79-99.19-74.45-153.66S165.13 11.77 103.18 78 38.16 210.57 38.16 210.57Z" style="fill:#fff;opacity:.7000000000000001"/><path d="M19.09 374.66c3-.22 8.82-3.47 8.83-3.47s-3.31-3.2-3.55-3.38c-2.73-2-9.19-4.35-12.29-2.14a4.5 4.5 0 0 0-.57 6.68c1.77 2.03 5.05 2.49 7.58 2.31Z" style="fill:#263238"/><path d="M30.16 390.71c2.7-.95 7.17-5.26 7.52-5.61a79.81 79.81 0 0 0 7.87 7.18c1.61 1.29 3.27 2.55 5 3.79-.86-.45-1.62-.85-1.73-.89-3.17-1.24-10-1.77-12.43 1.18a4.5 4.5 0 0 0 1.18 6.64c2.24 1.49 5.53 1.07 7.92.22s6.32-4.45 7.34-5.42c.65.47 1.29.95 1.94 1.41 3.13 2.24 6.27 4.46 9.28 6.73 1.06.8 2.07 1.63 3.09 2.45-.76-.4-1.4-.73-1.5-.77-3.17-1.24-10-1.77-12.43 1.18a4.51 4.51 0 0 0 1.22 6.6c2.24 1.48 5.53 1.06 7.92.22s5.94-4.11 7.15-5.25c1 .87 2 1.74 3 2.64.63.62 1.28 1.18 1.88 1.84l1.81 1.92c1.1 1.25 2.25 2.54 3.29 3.8.74.87 1.42 1.7 2.11 2.55-1-.81-3.13-2.35-3.31-2.46-3-1.7-9.63-3.27-12.46-.71a4.5 4.5 0 0 0 .2 6.7c2 1.8 5.31 1.89 7.8 1.42 2.75-.53 7.64-3.95 8.25-4.38 1.13 1.4 2.23 2.78 3.24 4.09 2.73 3.52 5 6.65 6.75 9.18l2.24-1.18c-1.86-2.56-4.28-5.78-7.22-9.4a218.3 218.3 0 0 0-3.71-4.46 47.49 47.49 0 0 0 3.46-4.59c2.71 1 8.28.81 9 .79.18 1.8.33 3.54.45 5.2.32 4.31.48 8.09.57 11.12l2.43-1.29c-.15-2.84-.38-6.22-.75-10-.17-1.83-.39-3.77-.64-5.77.7-.2 6.45-1.88 8.57-3.7 1.94-1.65 3.94-4.29 3.78-7a4.51 4.51 0 0 0-5.11-4.35c-3.75.61-6.72 6.8-7.23 10.16 0 .2-.12 2.39-.15 3.77-.1-.81-.2-1.6-.31-2.44-.23-1.66-.5-3.31-.78-5.08q-.25-1.27-.51-2.58c-.15-.87-.42-1.76-.63-2.65-.52-2.06-1.16-4.11-1.84-6.17 1.45-.19 6.59-1 8.76-2.31s4.54-3.65 4.79-6.32a4.52 4.52 0 0 0-4.39-5.08c-3.8 0-7.67 5.71-8.69 9-.06.21-.53 2.62-.76 3.95-.42-1.24-.83-2.47-1.3-3.7-1.34-3.56-2.82-7.12-4.27-10.68l-1.31-3.27c.52-.07 6.65-.86 9.08-2.36 2.16-1.34 4.54-3.65 4.78-6.32a4.51 4.51 0 0 0-4.37-5.17c-3.81 0-7.68 5.71-8.69 8.95-.08.25-.74 3.72-.87 4.61-1-2.4-1.89-4.81-2.71-7.21a80 80 0 0 1-2.73-9.92c.24 0 6.65-.83 9.14-2.37 2.15-1.34 4.53-3.65 4.78-6.32a4.51 4.51 0 0 0-4.38-5.08c-3.81 0-7.68 5.71-8.69 8.95-.08.26-.8 4-.88 4.68 0-.2-.1-.39-.14-.59a58.55 58.55 0 0 1-.91-10.28c0-1.9.06-3.72.18-5.49 1.21 0 6.73-.2 9.13-1.34s4.9-3.13 5.45-5.76a4.52 4.52 0 0 0-3.8-5.53c-3.79-.38-8.26 4.83-9.63 7.95-.07.17-.64 2-1 3.29.07-.79.12-1.62.2-2.38.29-2.87.74-5.47 1.15-7.78.24-1.31.49-2.48.73-3.58 1.18-.65 5.87-3.3 7.44-5.38s2.92-5 2.18-7.62a4.51 4.51 0 0 0-5.95-3.15c-3.54 1.4-5.1 8.09-4.88 11.48 0 .3.85 4.85.91 4.81h.07c-.25 1.05-.51 2.18-.77 3.43-.46 2.3-1 4.9-1.32 7.77a79.8 79.8 0 0 0-.71 9.31 58.79 58.79 0 0 0 .7 10.43s0 .08 0 .12c-.5-1-2-3.74-2.14-3.93-2-2.78-7.37-7-11-5.87a4.51 4.51 0 0 0-2.62 6.17c1.05 2.47 4 3.94 6.49 4.56 2.78.69 8.88-.44 9.37-.53a79.14 79.14 0 0 0 2.6 10.32c.63 2 1.32 3.94 2 5.9-.46-.85-.88-1.6-.95-1.7-2-2.78-7.37-7-11-5.87a4.51 4.51 0 0 0-2.62 6.17c1.05 2.48 4 3.94 6.48 4.56s7.73-.23 9.11-.48c.29.75.56 1.5.85 2.25 1.37 3.6 2.76 7.18 4 10.73.44 1.25.83 2.5 1.23 3.75-.41-.75-.77-1.38-.83-1.47-2-2.78-7.38-7-11-5.87a4.51 4.51 0 0 0-2.63 6.17c1.06 2.47 4 3.94 6.49 4.56s7.22-.16 8.86-.44c.37 1.29.74 2.58 1 3.85.18.87.42 1.7.56 2.58s.3 1.74.45 2.59c.22 1.66.47 3.37.65 5 .13 1.13.24 2.21.35 3.29-.43-1.25-1.31-3.68-1.41-3.88a17.59 17.59 0 0 0-6-6.44 5.69 5.69 0 0 0-.52-.85 4.51 4.51 0 0 0-6.66-.81c-2.8 2.58-1.85 9.38-.43 12.47.09.18 1.22 2.05 2 3.22-.54-.62-1-1.23-1.61-1.86-1.1-1.26-2.24-2.49-3.45-3.81l-1.85-1.88c-.6-.63-1.32-1.23-2-1.86a90.3 90.3 0 0 0-4.93-4.12c1.1-1 5-4.45 6-6.77s1.77-5.54.5-7.91a4.5 4.5 0 0 0-6.45-1.87c-3.16 2.13-3.26 9-2.32 12.27.06.2 1 2.47 1.54 3.7-1-.79-2-1.59-3.12-2.36-3.08-2.23-6.28-4.39-9.45-6.55l-2.9-2c.4-.34 5.07-4.38 6.27-7 1.06-2.31 1.77-5.54.5-7.91a4.49 4.49 0 0 0-6.41-1.79c-3.16 2.12-3.26 9-2.31 12.26.07.24 1.43 3.51 1.81 4.32-2.12-1.48-4.22-3-6.24-4.52a79.82 79.82 0 0 1-7.76-6.76c.18-.16 5.09-4.36 6.31-7 1.06-2.3 1.78-5.54.51-7.91a4.51 4.51 0 0 0-6.46-1.81c-3.16 2.13-3.26 9-2.31 12.26.07.26 1.54 3.77 1.85 4.38l-.44-.41a57.56 57.56 0 0 1-6.43-8.07c-1.07-1.58-2-3.14-2.88-4.68 1-.69 5.5-3.89 6.87-6.16s2.37-5.31 1.37-7.8a4.51 4.51 0 0 0-6.22-2.52c-3.37 1.77-4.22 8.59-3.64 11.94 0 .18.55 2 1 3.31-.38-.7-.79-1.42-1.14-2.1-1.34-2.55-2.41-5-3.34-7.11-.51-1.23-1-2.35-1.36-3.4.62-1.18 3.07-6 3.23-8.58s-.42-5.83-2.42-7.58a4.51 4.51 0 0 0-6.68.63c-2.18 3.12.21 9.56 2.27 12.27.18.24 3.38 3.57 3.41 3.51v-.07c.37 1 .78 2.11 1.24 3.29.89 2.17 1.91 4.62 3.19 7.21a79.58 79.58 0 0 0 4.57 8.16 59 59 0 0 0 6.33 8.31l.09.09c-1-.56-3.73-2-4-2.1-3.17-1.24-10-1.77-12.42 1.18a4.5 4.5 0 0 0 1.21 6.59c2.27 1.51 5.55 1.07 7.95.22Z" style="fill:#263238"/><path d="M79.6 344.46c.07 0-1-4.5-1.1-4.78-1.15-3.2-5.26-8.7-9.07-8.57a4.52 4.52 0 0 0-4.16 5.26c.37 2.67 2.84 4.87 5.06 6.11 2.6 1.46 9.26 1.98 9.27 1.98ZM479.23 374.66c-3-.22-8.82-3.47-8.82-3.47s3.31-3.2 3.54-3.38c2.73-2 9.2-4.35 12.3-2.14a4.5 4.5 0 0 1 .56 6.68c-1.81 2.03-5.05 2.49-7.58 2.31Z" style="fill:#263238"/><path d="M468.17 390.71c-2.7-.95-7.17-5.26-7.53-5.61a78.69 78.69 0 0 1-7.87 7.18 157.52 157.52 0 0 1-4.95 3.79c.85-.45 1.62-.85 1.73-.89 3.17-1.24 10-1.77 12.42 1.18a4.5 4.5 0 0 1-1.22 6.59c-2.24 1.49-5.52 1.07-7.92.22s-6.32-4.45-7.33-5.42l-1.95 1.41c-3.13 2.24-6.26 4.46-9.27 6.73-1.06.8-2.08 1.63-3.1 2.45.76-.4 1.4-.73 1.51-.77 3.16-1.24 10-1.77 12.42 1.18a4.51 4.51 0 0 1-1.22 6.6c-2.24 1.48-5.53 1.06-7.92.22s-5.94-4.11-7.15-5.25c-1 .87-2 1.74-3 2.64-.64.62-1.29 1.18-1.89 1.84s-1.21 1.28-1.8 1.92a162.82 162.82 0 0 0-3.3 3.8c-.73.87-1.42 1.7-2.11 2.55 1.05-.81 3.13-2.35 3.32-2.46 2.94-1.7 9.63-3.27 12.45-.71a4.5 4.5 0 0 1-.2 6.7c-2 1.8-5.3 1.89-7.8 1.42-2.74-.53-7.63-3.95-8.24-4.38-1.14 1.4-2.23 2.78-3.25 4.09-2.72 3.52-5 6.65-6.75 9.18l-2.25-1.18c1.86-2.56 4.29-5.78 7.22-9.4 1.15-1.43 2.41-2.93 3.72-4.46a48.72 48.72 0 0 1-3.47-4.59c-2.71 1-8.28.81-9 .79-.17 1.8-.33 3.54-.45 5.2-.32 4.31-.48 8.09-.56 11.12l-2.44-1.29c.15-2.84.39-6.22.75-10 .18-1.83.4-3.77.64-5.77-.7-.2-6.44-1.88-8.57-3.7-1.93-1.65-3.93-4.29-3.77-7a4.5 4.5 0 0 1 5.1-4.35c3.76.61 6.72 6.8 7.23 10.16 0 .2.12 2.39.15 3.77.11-.81.2-1.6.32-2.44.22-1.66.49-3.31.78-5.08.16-.85.33-1.71.5-2.58s.42-1.76.63-2.65c.53-2.06 1.16-4.11 1.84-6.17-1.45-.19-6.59-1-8.76-2.31s-4.54-3.65-4.78-6.32a4.51 4.51 0 0 1 4.38-5.08c3.81 0 7.68 5.71 8.69 9 .07.21.53 2.62.76 3.95.42-1.24.84-2.47 1.3-3.7 1.35-3.56 2.82-7.12 4.27-10.68.45-1.09.88-2.18 1.31-3.27-.51-.07-6.65-.86-9.08-2.36-2.15-1.34-4.53-3.65-4.78-6.32a4.51 4.51 0 0 1 4.38-5.08c3.81 0 7.68 5.71 8.7 8.95.07.25.74 3.72.86 4.61 1-2.4 1.89-4.81 2.72-7.21a79.88 79.88 0 0 0 2.74-9.92c-.24 0-6.64-.83-9.13-2.37-2.16-1.34-4.54-3.65-4.79-6.32a4.52 4.52 0 0 1 4.39-5.08c3.81 0 7.67 5.71 8.69 8.95.08.26.79 4 .87 4.68 0-.2.11-.39.14-.59a57.61 57.61 0 0 0 .91-10.28c0-1.9-.06-3.72-.18-5.49-1.21 0-6.73-.2-9.12-1.34s-4.91-3.13-5.45-5.76a4.51 4.51 0 0 1 3.8-5.53c3.79-.38 8.26 4.83 9.62 7.95.08.17.64 2 1 3.29-.07-.79-.12-1.62-.2-2.38-.29-2.87-.73-5.47-1.15-7.78-.24-1.31-.49-2.48-.73-3.58-1.17-.65-5.86-3.3-7.43-5.38s-2.92-5-2.19-7.62a4.51 4.51 0 0 1 5.92-3.15c3.54 1.4 5.1 8.09 4.88 11.48 0 .3-.85 4.85-.91 4.81h-.07c.25 1.05.52 2.18.78 3.43.46 2.3 1 4.9 1.32 7.77a79.89 79.89 0 0 1 .7 9.31 58.76 58.76 0 0 1-.69 10.43v.12c.5-1 2-3.74 2.14-3.93 2-2.78 7.37-7 11-5.87a4.5 4.5 0 0 1 2.62 6.17c-1.05 2.47-4 3.94-6.48 4.56-2.78.69-8.89-.44-9.38-.53a79.14 79.14 0 0 1-2.6 10.32c-.63 2-1.32 3.94-2 5.9.46-.85.88-1.6.95-1.7 2-2.78 7.38-7 11-5.87a4.51 4.51 0 0 1 2.63 6.17c-1.06 2.48-4 3.94-6.49 4.56s-7.73-.23-9.11-.48l-.84 2.25c-1.38 3.6-2.77 7.18-4 10.73-.44 1.25-.83 2.5-1.22 3.75.41-.75.76-1.38.82-1.47 2-2.78 7.38-7 11-5.87a4.51 4.51 0 0 1 2.62 6.17c-1.06 2.47-4 3.94-6.49 4.56s-7.22-.16-8.86-.44c-.36 1.29-.73 2.58-1 3.85-.18.87-.42 1.7-.55 2.58s-.3 1.74-.45 2.59c-.23 1.66-.47 3.37-.65 5-.14 1.13-.25 2.21-.36 3.29.43-1.25 1.32-3.68 1.41-3.88A17.54 17.54 0 0 1 410 407a4.41 4.41 0 0 1 .52-.85 4.5 4.5 0 0 1 6.65-.81c2.8 2.58 1.86 9.38.43 12.47-.09.18-1.22 2.05-2 3.22.54-.62 1.06-1.23 1.62-1.86 1.1-1.26 2.23-2.49 3.45-3.81l1.84-1.88c.61-.63 1.33-1.23 2-1.86a86.89 86.89 0 0 1 4.94-4.12c-1.1-1-5-4.45-6-6.77s-1.78-5.54-.51-7.91a4.51 4.51 0 0 1 6.46-1.82c3.16 2.13 3.25 9 2.31 12.27-.06.2-1 2.47-1.54 3.7 1-.79 2.05-1.59 3.12-2.36 3.09-2.23 6.28-4.39 9.46-6.55l2.89-2c-.39-.34-5.07-4.38-6.27-7-1.06-2.31-1.77-5.54-.5-7.91a4.5 4.5 0 0 1 6.46-1.81c3.15 2.12 3.25 9 2.31 12.26-.07.24-1.43 3.51-1.82 4.32 2.13-1.48 4.23-3 6.24-4.52a78.65 78.65 0 0 0 7.76-6.76c-.18-.16-5.08-4.36-6.31-7-1.06-2.3-1.77-5.54-.5-7.91a4.5 4.5 0 0 1 6.45-1.81c3.16 2.13 3.26 9 2.31 12.26-.07.26-1.53 3.77-1.84 4.38l.44-.41a58.21 58.21 0 0 0 6.42-8.07c1.07-1.58 2-3.14 2.88-4.68-1-.69-5.5-3.89-6.86-6.16s-2.37-5.31-1.37-7.8a4.51 4.51 0 0 1 6.22-2.52c3.37 1.77 4.22 8.59 3.64 11.94 0 .18-.56 2-1 3.31.38-.7.79-1.42 1.15-2.1 1.34-2.55 2.4-5 3.33-7.11.52-1.23 1-2.35 1.37-3.4-.63-1.18-3.07-6-3.24-8.58s.35-5.81 2.38-7.56a4.51 4.51 0 0 1 6.68.63c2.18 3.12-.21 9.56-2.26 12.27-.18.24-3.39 3.57-3.42 3.51v-.07c-.36 1-.77 2.11-1.24 3.29-.88 2.17-1.9 4.62-3.19 7.21a79.58 79.58 0 0 1-4.55 8.16 57.49 57.49 0 0 1-6.33 8.31l-.09.09c1-.56 3.73-2 4-2.1 3.16-1.24 10-1.77 12.42 1.18a4.5 4.5 0 0 1-1.22 6.59c-2.24 1.51-5.53 1.07-7.92.22Z" style="fill:#263238"/><path d="M418.73 344.46c-.07 0 1-4.5 1.09-4.78 1.15-3.2 5.27-8.7 9.07-8.57a4.51 4.51 0 0 1 4.16 5.26c-.36 2.67-2.84 4.87-5.05 6.11-2.6 1.46-9.27 1.98-9.27 1.98Z" style="fill:#263238"/><g><path style="fill:none;stroke:#263238;stroke-miterlimit:10" d="m92.23 200.6.83.55"/><path style="fill:none;stroke:#263238;stroke-miterlimit:10;stroke-dasharray:1.9975500106811523,1.9975500106811523" d="m94.74 202.24 153.23 99.63"/><path style="fill:none;stroke:#263238;stroke-miterlimit:10" d="m248.81 302.42.83.54-.54-.83"/><path style="fill:none;stroke:#263238;stroke-miterlimit:10;stroke-dasharray:1.9842400550842285,1.9842400550842285" d="M248.02 300.46 116.58 98.36"/><path style="fill:none;stroke:#263238;stroke-miterlimit:10" d="m116.03 97.53-.54-.84M407.06 200.6l-.83.55"/><path style="fill:none;stroke:#263238;stroke-miterlimit:10;stroke-dasharray:1.9975500106811523,1.9975500106811523" d="m404.55 202.24-153.23 99.63"/><path style="fill:none;stroke:#263238;stroke-miterlimit:10" d="m250.48 302.42-.84.54.55-.83"/><path style="fill:none;stroke:#263238;stroke-miterlimit:10;stroke-dasharray:1.9842400550842285,1.9842400550842285" d="m251.27 300.46 131.44-202.1"/><path style="fill:none;stroke:#263238;stroke-miterlimit:10" d="m383.25 97.53.55-.84M249.64 65.67v1"/><path style="fill:none;stroke:#263238;stroke-miterlimit:10;stroke-dasharray:2.011039972305298,2.011039972305298" d="M249.64 68.68v232.28"/><path style="fill:none;stroke:#263238;stroke-miterlimit:10" d="M249.64 301.96v1"/><circle cx="251.51" cy="61.15" r="30.75" style="fill:#263238;stroke:#263238;stroke-miterlimit:10;stroke-width:2px"/><path d="m251.51 61.15 25.88-16.6a30.82 30.82 0 0 0-16.3-12.62Z" style="fill:#2563eb;stroke:#263238;stroke-miterlimit:10"/><path d="M251.51 61.15 266 88.26a30.75 30.75 0 0 0 11.35-43.71Z" style="fill:#fff;stroke:#263238;stroke-miterlimit:10"/><circle cx="378.67" cy="96.5" r="30.74" transform="rotate(-45 378.668 96.49)" style="fill:none;stroke:#263238;stroke-miterlimit:10"/><circle cx="378.67" cy="96.5" r="26.65" style="fill:#263238"/><path style="fill:#fff" d="m394 96.5-25.81-14.91v29.81L394 96.5z"/><circle cx="422.72" cy="196.79" r="32.08" transform="rotate(-76.53 422.714 196.782)" style="fill:#263238"/><circle cx="422.72" cy="196.79" r="22.91" transform="rotate(-76.58 422.742 196.782)" style="fill:#fff"/><circle cx="422.72" cy="196.79" r="13.75" transform="rotate(-76.64 422.7 196.793)" style="fill:#263238"/><circle cx="422.72" cy="196.79" r="7.4" transform="rotate(-76.67 422.748 196.781)" style="fill:#fff"/><path d="m463.6 181.4-4.08-1.59 1.78-.87a.85.85 0 1 0-.74-1.53l-1.29.63 2.05-4.44-7.61 3.4-1.11 4.27L422.35 196a.85.85 0 0 0-.39 1.14.83.83 0 0 0 1.13.39l30.35-14.78 3.31 1.87Z" style="fill:#263238"/><circle cx="118.17" cy="95.16" r="32.07" style="fill:#fff;stroke:#263238;stroke-miterlimit:10;stroke-width:2px"/><ellipse cx="118.17" cy="95.16" rx="23.26" ry="32.07" style="fill:#fff;stroke:#263238;stroke-miterlimit:10"/><ellipse cx="118.17" cy="95.16" rx="9.9" ry="32.07" style="fill:#fff;stroke:#263238;stroke-miterlimit:10"/><path style="fill:none;stroke:#263238;stroke-miterlimit:10" d="M101.18 68.07h34.55M89.56 80.64h57.17M86.26 93.2h63.92M87.67 105.77h60.63M96.31 118.33h44.29"/><circle cx="76.19" cy="196.79" r="32.07" style="fill:#263238;stroke:#263238;stroke-miterlimit:10;stroke-width:2px"/><path style="fill:#fff;stroke:#263238;stroke-miterlimit:10;stroke-width:2px" d="M53.98 181.63h42.53v34.03H53.98z"/><path style="fill:#fff;stroke:#263238;stroke-miterlimit:10;stroke-width:2px" d="M51.32 181.63h47.85v13.82H51.32z"/><path d="M75.2 181.29s-10-11.71-11.71-11.15-6.13 8.36-3.62 9.2 15.33 1.95 15.33 1.95ZM75.29 181.29s10-11.71 11.71-11.15 6.14 8.36 3.63 9.2-15.34 1.95-15.34 1.95ZM78.27 205.55l-3.01-5.23-3.12 5.23v-23.42h6.13v23.42z" style="fill:#2563eb"/></g><g><path style="fill:#263238;stroke:#263238;stroke-linecap:round;stroke-linejoin:round" d="m90.39 285.14 159.14-89.57 163.04 89.57v129.85H92.35l-1.96-129.85z"/><path style="fill:#fff;stroke:#263238;stroke-miterlimit:10" d="M132.38 219.73H370.6v211.86H132.38z"/><path style="fill:none;stroke:#263238;stroke-miterlimit:10" d="M159.71 256.83h180.62M159.71 275.38h180.62M159.71 293.93h180.62M159.71 312.48h180.62M159.71 331.03h180.62M159.71 349.58h180.62"/><path style="fill:#2563eb;stroke:#263238;stroke-miterlimit:10" d="M412.57 463.81H90.39V285.14l161.1 109.35 161.08-109.35v178.67z"/><path style="fill:none;stroke:#263238;stroke-miterlimit:10" d="m90.39 463.81 117.14-99.21M412.06 463.81l-116.27-99.37"/></g><g><path d="M286.33 160.67s-1.21 5.66.41 7.48 7.68 8.29 7.68 9.3-2 30.13-2 30.13l-9.3-6.67-5.66 17.39s14.15 6.07 20.83 7.28 7.88-.61 7.88-5.86-5.26-45.5-5.26-45.5 1.62-9.3 1.62-10.92.61-2.43-.81-3.24-12.94-2-12.94-2-2.45.99-2.45 2.61Z" style="fill:#fff;stroke:#263238;stroke-linecap:round;stroke-linejoin:round"/><path style="fill:#263238;stroke:#263238;stroke-linecap:round;stroke-linejoin:round" d="m283.33 203.36-3.07 15.58-2.82-.64 5.89-14.94z"/><path d="m306 165.21-22.91-3.08v-5.71a1 1 0 0 1 2 0v4l19.15 2.58.33-4.62a1 1 0 1 1 1.95.14Z" style="fill:#263238"/><path style="fill:#fff;stroke:#263238;stroke-linecap:round;stroke-linejoin:round" d="m288.36 163.3 12.53 1.21.81-4.45-12.94-2.02-.4 5.26z"/><path d="M286.13 163.91s0-5.06.61-5.46 9.3.2 9.3 1.41 0 1.82-1 1.82-3 .2-3 .2 4.65 4.25 3.23 8.09" style="fill:#fff;stroke:#263238;stroke-linecap:round;stroke-linejoin:round"/><path style="fill:none;stroke:#263238;stroke-linecap:round;stroke-linejoin:round" d="m292.4 207.58-.81 8.9"/><path d="M189.71 203.7s-28.58 22.3-27.84 24.71 21.94 22.68 28.95 27.65 10.88 7.2 10.88 7.2l4.42 2.76s-1.84 3-.73 3.51 5.16 2.58 5.71 1.47 3.51-9.4 3.14-11.43-11.07-3.69-11.8-4.43-18.26-28-18.26-28l13.65-10.69Z" style="fill:#fff;stroke:#263238;stroke-linecap:round;stroke-linejoin:round"/><path style="fill:#263238;stroke:#263238;stroke-linecap:round;stroke-linejoin:round" d="m189.22 204.44 5.19 14.07 3.42-2.09-8.61-11.98z"/><path d="M206.12 266s1.3 2.77 3.51 3M184.18 227.11l-3.69-6.45" style="fill:none;stroke:#263238;stroke-linecap:round;stroke-linejoin:round"/><path style="fill:#fff;stroke:#263238;stroke-linecap:round;stroke-linejoin:round" d="m208.71 429.02-.3 16.39 13.43.29 1.19-17.86-14.32 1.18z"/><path style="fill:#263238;stroke:#263238;stroke-linecap:round;stroke-linejoin:round" d="M208.76 428.13v4.05l13.93.65.32-4.21-14.25-.49zM215.05 441.13s-1.77-6.94-4.43-7.09-4 1.92-5 3.84-7.53 8.41-9.75 10-7.08 3.69-7.82 8.41 2.06 6.65 4 7.09 10.63.59 15.8 0 19.26.81 20.08 0 1.92-3.4 1.18-5.17a24 24 0 0 0-2.07-3.69s1.48-4.28.59-6.64-2.66-5.32-2.36-6.65 3.54-4.13 1.33-4.28-5.76 2.51-8 3.25a19.41 19.41 0 0 1-3.55.93Z"/><path d="M224.5 455.15c-2.07.3-10 4.13-15.06 5.32s-9.44 1.32-11.81.14-4.43-4.72-6.2-6.94-3.24 3.4-3.24 3.4l-.25.11c-.3 4.11 2.28 5.82 4.08 6.24s10.63.59 15.8 0 19.26.81 20.08 0 1.92-3.4 1.18-5.17a24 24 0 0 0-2.07-3.69c-.88-.15-.44.3-2.51.59ZM203 442s4-.88 9 4l-2.65 2.21s-5.17-4-8.42-4ZM199.26 445s4-.89 9 4l-2.65 2.22s-5.17-4-8.42-4Z" style="fill:#fff;stroke:#263238;stroke-linecap:round;stroke-linejoin:round"/><path style="fill:none;stroke:#263238;stroke-linecap:round;stroke-linejoin:round" d="m210.92 444.52 4.13-3.39"/><path d="M205.61 451.17s1 2.21-.74 3.54-13.44-.89-13.29-2.51 5.61-5 5.61-5a22.59 22.59 0 0 1 8.42 3.97ZM293.42 429.02l.29 16.39-13.43.29-1.18-17.86 14.32 1.18z" style="fill:#fff;stroke:#263238;stroke-linecap:round;stroke-linejoin:round"/><path style="fill:#263238;stroke:#263238;stroke-linecap:round;stroke-linejoin:round" d="M279.36 430.88v2.43l14.25-.16-.16-3.56-14.41-.16.32 1.45zM287.07 441.13s1.77-6.94 4.43-7.09 4 1.92 5 3.84 7.53 8.41 9.74 10 7.09 3.69 7.82 8.41-2.06 6.65-4 7.09-10.63.59-15.8 0-19.26.81-20.07 0-1.92-3.4-1.19-5.17a24 24 0 0 1 2.07-3.69s-1.48-4.28-.59-6.64 2.66-5.32 2.36-6.65-3.54-4.13-1.33-4.28 5.76 2.51 8 3.25a19.23 19.23 0 0 0 3.56.93Z"/><path d="M277.62 455.15c2.07.3 10 4.13 15.06 5.32s9.45 1.32 11.81.14 4.43-4.72 6.2-6.94 3.25 3.4 3.25 3.4l.24.11c.3 4.11-2.28 5.82-4.08 6.24s-10.63.59-15.8 0-19.26.81-20.07 0-1.92-3.4-1.19-5.17a24 24 0 0 1 2.07-3.69c.89-.15.44.3 2.51.59ZM299.17 442s-4-.88-9 4l2.66 2.21s5.16-4 8.41-4ZM302.86 445s-4-.89-9 4l2.66 2.22s5.16-4 8.41-4Z" style="fill:#fff;stroke:#263238;stroke-linecap:round;stroke-linejoin:round"/><path style="fill:none;stroke:#263238;stroke-linecap:round;stroke-linejoin:round" d="m291.2 444.52-4.13-3.39"/><path d="M296.52 451.17s-1 2.21.73 3.54 13.44-.89 13.29-2.51-5.61-5-5.61-5a22.51 22.51 0 0 0-8.41 3.97Z" style="fill:#fff;stroke:#263238;stroke-linecap:round;stroke-linejoin:round"/><path d="M214.88 256s-7.81 31.89-10.74 58.91-7.49 115.53-7.49 115.53h35.8s10.74-89.83 12.37-105.77 1.62-26 1.62-26l20.18 131.81h42.63s-16.27-83.64-22.78-122-15.62-53.37-15.62-53.37Z" style="fill:#b0b0b0;stroke:#263238;stroke-linecap:round;stroke-linejoin:round"/><path d="M245.47 258.31c-.31.93-8.79 13.67-6.19 14.64s7.49 1 7.49-1.62v-10.42s.65 14.65 3.58 14 6.83 0 5.86-3.26-8.46-13.65-8.46-13.65-1.31-2.62-2.28.31Z" style="fill:#b0b0b0;stroke:#263238;stroke-linecap:round;stroke-linejoin:round"/><path d="M246.81 259.38s7.38 10.48 6.67 11.43-1.67 1.9-2.38.48-4.29-11.91-4.29-11.91ZM246.57 258.19s-5.48 11.67-4.76 12.14a1.9 1.9 0 0 0 2.85-1.19c.48-1.66 1.91-10.95 1.91-10.95Z" style="fill:none;stroke:#263238;stroke-miterlimit:10"/><path d="M268.81 291.45c.3 1.65.56 3.21.74 4.61M261.09 259.29s4.06 14.5 6.67 26.81M258.16 259.29s2.6 18.22 3.9 23.1M222.74 284.52c-.14 1.26-.26 2.41-.38 3.4M225.29 259.29s-1.08 11.13-2 20.33M222.69 259.94l-1.31 15.62" style="fill:none;stroke:#263238;stroke-linecap:round;stroke-linejoin:round"/><path d="M245.49 126.5s12.13 1.21 9.3 7.48-5.66 7.48-6.27 7.48-5.46-7.48-5.46-7.48Z" style="fill:#263238;stroke:#263238;stroke-linecap:round;stroke-linejoin:round"/><path d="M244.07 132.36s4.65 2.63 6.07 7.48 5.05 6.27 6.07 6.07 2.42 2.83 1.21 4.85l-1.21 2s1 13.75-.21 15.57-8.69.81-8.69.81-1.62 6.47-.2 10.52 5.66 6.06 7.28 6.06 5.05-2 9.7.41 20.22 14.15 20.22 14.15L276 223l-8.9-4.65 6.27 38.62-60.66 1.42s.61-27.5-1-32.56a59.39 59.39 0 0 0-4.25-9.7l-7.68 6.06-10.72-18.6s15.77-15.77 22-17.19 13.75.41 16.18-2.63.4-17.39.4-17.39-5.86-2-9.3-12.33 8.29-21 8.29-21 5.31-5.54 17.44-.69Z" style="fill:#fff;stroke:#263238;stroke-linecap:round;stroke-linejoin:round"/><path style="fill:#263238;stroke:#263238;stroke-linecap:round;stroke-linejoin:round" d="m247.31 169.16-5.47-.92 4.39 5.05 1.08-4.13z"/><path d="M244.74 143.31s0-3.84 3.44-3.84" style="fill:none;stroke:#263238;stroke-linecap:round;stroke-linejoin:round;stroke-width:2px"/><path d="m253.78 157.23-7.08-3.44s-.6 7.28 2 7.08 5.08-3.64 5.08-3.64Z" style="fill:#263238;stroke:#263238;stroke-linecap:round;stroke-linejoin:round"/><path d="M246.85 147.06s2.28-2.47 4.18-.38" style="fill:none;stroke:#263238;stroke-linecap:round;stroke-linejoin:round"/><path d="m246.65 156.1 6.36 2.07a11.19 11.19 0 0 0 .77-.94l-7.08-3.43s-.08 1.03-.05 2.3Z" style="fill:#fff;stroke:#263238;stroke-linecap:round;stroke-linejoin:round"/><path d="M207.07 141.06s-4.45-9.1-10.72-8.09-11.12 7.88-9.1 17.59c0 0 1 2.63 1.82 4.85 0 0-7.88-2.42-12.13 2.83s-1 10.72 3.84 13.35 7.69 2.43 7.69 2.43-10.72 3.23-6.88 7.28 15.57 1.41 13.14-2-4.24-3-4.24-3 9.7-3.64 8.69-6.27-5.86-4.65-5.86-4.65 9.3 3.24 14.36.2.6-16 .6-16Z" style="fill:#263238;stroke:#263238;stroke-linecap:round;stroke-linejoin:round"/><path d="M247.71 122.05s1.62 5.66-1.21 10.51-8.9 13.15-9.71 22.45 1.82 20.83 3.44 24.67-2 4.65-4.65 4.45-3.64-1.82-3.64-5.46-.81-10.11-.81-10.11-10.31-1-15.16-3.85-11.93-12.53-8.9-23.65 11.12-14.36 16-16.38 11.53-1.82 16.18-2.83 8.26-2.23 8.46.2Z" style="fill:#263238;stroke:#263238;stroke-linecap:round;stroke-linejoin:round"/><path d="m233 150.36-1.82 7.28s-3.84-1.82-4.45-5.06 4-4.85 7.28-2" style="fill:#fff;stroke:#263238;stroke-linecap:round;stroke-linejoin:round"/><path style="fill:none;stroke:#263238;stroke-linecap:round;stroke-linejoin:round" d="m292 161.88-2.63.21"/><path style="fill:#2563eb;stroke:#263238;stroke-linecap:round;stroke-linejoin:round" d="m273.08 156.04 67.4 9.43-9.16-49.86L271 144.66l2.08 11.38z"/><path transform="rotate(-10.36 267.048 151.272)" style="fill:#2563eb;stroke:#263238;stroke-linecap:round;stroke-linejoin:round" d="M261.94 145.48h10.18V157h-10.18z"/><path d="M284.31 200.3s-15.57-11.73-20.22-14.15-8-.46-9.63-.41a22.64 22.64 0 0 1-19.46 9.71c-13.3-.17-17-7.57-17.8-9.73a32.45 32.45 0 0 0-6.06.63c-6.27 1.42-22 17.19-22 17.19l10.72 18.6 7.68-6.06a59.39 59.39 0 0 1 4.25 9.7c1.62 5.06 1 32.56 1 32.56l60.66-1.42-6.27-38.62L276 223Z" style="fill:#263238;stroke:#263238;stroke-linecap:round;stroke-linejoin:round"/><circle cx="241.61" cy="220.65" r="18.66" transform="rotate(-13.39 241.654 220.656)" style="fill:none;stroke:#fff;stroke-miterlimit:10"/><path style="fill:#2563eb" d="M253.01 212.2h-22.13l10.91 10.51 11.22-10.51zM246.22 220.39l7.7 6.8v-14.02l-7.7 7.22zM237.44 220.37l-7.8-7.52v14.02l7.8-6.5z"/><path style="fill:#2563eb" d="m245.24 221.3-3.46 3.25-3.37-3.25-8.12 6.77h22.61l-7.66-6.77z"/></g><g><path style="fill:none;stroke:#263238;stroke-miterlimit:10" d="M30.31 463.81h440.32"/></g></svg>