<svg width="20" height="19" viewBox="0 0 20 19" fill="none" xmlns="http://www.w3.org/2000/svg">
<path d="M13.892 0.239958C13.0602 -0.079986 12.1392 -0.079986 11.3074 0.239958L7.15384 1.83747C6.45869 2.10484 6 2.7727 6 3.51749V4.83781C6.3984 4.78766 6.8016 4.78768 7.2 4.83789V3.51749C7.2 3.26923 7.35289 3.04661 7.58461 2.95749L11.7382 1.35998C12.2927 1.14668 12.9067 1.14668 13.4612 1.35998L17.6148 2.95749C17.8465 3.04661 17.9994 3.26924 17.9994 3.51749V12.8535C17.9994 13.1017 17.8465 13.3243 17.6148 13.4134L14.3994 14.6501V15.2536C14.3994 15.4985 14.3696 15.7384 14.313 15.969L18.0456 14.5335C18.7408 14.2661 19.1994 13.5982 19.1994 12.8535V3.51749C19.1994 2.7727 18.7408 2.10484 18.0456 1.83747L13.892 0.239958ZM16.9094 3.73852C16.7905 3.42923 16.4434 3.27495 16.134 3.39391L12.815 4.67045C12.6763 4.72378 12.5228 4.72378 12.3842 4.67045L9.06517 3.39391C8.7559 3.27495 8.40874 3.42923 8.28978 3.73852C8.17082 4.04781 8.32512 4.39496 8.63439 4.51391L11.9534 5.79047C12.3694 5.95043 12.8298 5.95043 13.2457 5.79047L16.5648 4.51391C16.874 4.39496 17.0284 4.04781 16.9094 3.73852ZM10.9094 9.73874C10.7904 9.4295 10.4432 9.27515 10.134 9.3941L6.59959 10.7535L3.06516 9.3941C2.75588 9.27515 2.40872 9.4295 2.28977 9.73874C2.17081 10.048 2.32511 10.3951 2.63438 10.5142L5.99959 11.8084V14.7961C5.99959 15.1276 6.26821 15.3961 6.59959 15.3961C6.93096 15.3961 7.19959 15.1276 7.19959 14.7961V11.8084L10.5648 10.5142C10.874 10.3951 11.0284 10.048 10.9094 9.73874ZM7.89203 6.23996C7.06018 5.92001 6.13922 5.92001 5.30737 6.23996L1.15384 7.83747C0.458688 8.10484 0 8.7727 0 9.51746V15.2535C0 15.9982 0.458688 16.6661 1.15384 16.9335L5.30737 18.531C6.13922 18.8509 7.06018 18.8509 7.89203 18.531L12.0456 16.9335C12.7408 16.6661 13.1994 15.9982 13.1994 15.2535V9.51746C13.1994 8.7727 12.7408 8.10484 12.0456 7.83747L7.89203 6.23996ZM5.73815 7.35998C6.29272 7.14668 6.90668 7.14668 7.46125 7.35998L11.6148 8.95749C11.8465 9.04661 11.9994 9.26924 11.9994 9.51746V15.2535C11.9994 15.5017 11.8465 15.7243 11.6148 15.8134L7.46125 17.4109C6.90668 17.6243 6.29272 17.6243 5.73815 17.4109L1.58461 15.8134C1.35289 15.7243 1.2 15.5017 1.2 15.2535V9.51746C1.2 9.26924 1.35289 9.04661 1.58461 8.95749L5.73815 7.35998Z" fill="#41E395"/>
</svg>
