<svg width="24" height="24" viewBox="0 0 24 24" fill="none" xmlns="http://www.w3.org/2000/svg">
<path d="M21 4.8C20.6687 4.8 20.4 5.06864 20.4 5.4V18.6C20.4 18.9313 20.6687 19.2 21 19.2C21.3313 19.2 21.6 18.9313 21.6 18.6V5.4C21.6 5.06864 21.3313 4.8 21 4.8ZM18 12C18 11.6686 17.7313 11.4 17.4 11.4H4.44856L8.22434 7.62426C8.45858 7.38995 8.45858 7.01006 8.22434 6.77574C7.98998 6.54142 7.61006 6.54142 7.3757 6.77574L2.5757 11.5757C2.51269 11.6388 2.46664 11.7123 2.43752 11.7908C2.41327 11.8559 2.40002 11.9264 2.40002 12C2.40002 12.0736 2.41327 12.1441 2.43752 12.2093C2.46664 12.2876 2.51269 12.3612 2.5757 12.4243L7.3757 17.2243C7.61006 17.4586 7.98998 17.4586 8.22434 17.2243C8.45858 16.99 8.45858 16.61 8.22434 16.3758L4.44854 12.6H17.4C17.7313 12.6 18 12.3313 18 12Z" fill="#212121"/>
</svg>
