<svg width="24" height="24" viewBox="0 0 24 24" fill="none" xmlns="http://www.w3.org/2000/svg">
<path d="M3.88289 4.07353L3.96968 3.96967C4.23002 3.70932 4.63416 3.6804 4.92647 3.88288L5.03033 3.96967L12 10.9395L18.9696 3.96967C19.2626 3.67677 19.7375 3.67677 20.0304 3.96967C20.3232 4.26256 20.3232 4.73743 20.0304 5.03032L13.0605 12L20.0304 18.9696C20.2907 19.23 20.3196 19.6341 20.1171 19.9265L20.0304 20.0304C19.77 20.2907 19.3659 20.3196 19.0736 20.1171L18.9696 20.0304L12 13.0605L5.03033 20.0304C4.73744 20.3232 4.26257 20.3232 3.96968 20.0304C3.67677 19.7375 3.67677 19.2626 3.96968 18.9696L10.9395 12L3.96968 5.03032C3.70932 4.76998 3.6804 4.36584 3.88289 4.07353L3.96968 3.96967L3.88289 4.07353Z" fill="#212121"/>
</svg>
